<svg width="107" height="40" viewBox="0 0 107 40" fill="none" xmlns="http://www.w3.org/2000/svg">
<path d="M53.5 0C23.8061 0 0 8.85893 0 20.0019C0 31.0602 23.9993 40 53.5 40C83.0007 40 107.015 31.0294 107.015 20.0019C107.015 8.97448 83.0007 0 53.5 0Z" fill="#102B4E"/>
<path d="M74.5631 24.2389C74.5631 24.3275 74.6983 24.4161 74.8142 24.4584C74.8529 24.4584 74.876 24.5046 74.8142 24.5971C74.5258 25.2067 74.1831 25.7894 73.7904 26.3381C73.4194 26.8855 72.9674 27.3737 72.4499 27.7863C71.6579 28.4372 70.5607 29.146 69.6528 28.6722C69.4602 28.5333 69.3068 28.3473 69.2073 28.1321C69.1078 27.9168 69.0656 27.6797 69.0849 27.4435C69.1042 26.1647 69.6759 24.8513 70.7307 23.5571C72.0172 21.9818 73.435 21.1614 74.3699 21.6082C75.3049 22.055 75.0267 23.1835 74.594 24.0578C74.5818 24.0865 74.5755 24.1173 74.5755 24.1484C74.5755 24.1795 74.5818 24.2103 74.594 24.2389H74.5631ZM84.9324 14.2514C85.002 14.1281 84.9324 14.0396 84.774 14.0396H82.0697C81.8688 14.0396 81.7644 14.0627 81.6833 14.2475C81.3742 14.8407 77.5959 20.4873 76.8927 21.5658C76.773 21.7353 76.6262 21.7122 76.6107 21.5196C76.5313 21.1205 76.3492 20.7488 76.0824 20.4409C75.8155 20.133 75.4731 19.8995 75.0885 19.7632C74.4453 19.5071 73.7453 19.426 73.0603 19.5282C71.8384 19.7486 70.6941 20.2792 69.7378 21.0689C68.2697 22.1821 67.0025 23.6226 65.3683 24.6857C64.4758 25.2673 63.255 25.7719 62.4398 25.0169C61.6981 24.3313 61.7831 22.8137 62.915 21.639C63.0348 21.5157 63.1778 21.6197 63.1546 21.7314C63.0931 21.9861 63.1003 22.2526 63.1757 22.5036C63.251 22.7546 63.3917 22.9812 63.5834 23.1604C63.83 23.3691 64.1337 23.4994 64.4553 23.5344C64.7769 23.5694 65.1016 23.5076 65.3876 23.3568C65.7281 23.1798 66.0203 22.9228 66.2391 22.6081C66.4578 22.2934 66.5965 21.9304 66.6432 21.5504C66.6832 21.2711 66.6651 20.9866 66.59 20.7146C66.515 20.4427 66.3847 20.1889 66.2071 19.9693C66.0296 19.7497 65.8086 19.5688 65.558 19.4379C65.3073 19.307 65.0324 19.229 64.7501 19.2085C63.7537 19.1697 62.782 19.524 62.0458 20.1946C61.6306 20.5215 61.2695 20.9114 60.9756 21.3501C60.8829 21.4811 60.74 21.4965 60.7438 21.3C60.7863 19.7593 60.1489 18.9004 58.8778 18.8734C57.8888 18.8503 56.8341 19.3819 56.0112 20.029C55.1101 20.831 54.2634 21.6918 53.4768 22.6058C53.3725 22.7175 53.2798 22.7136 53.2489 22.4979C53.2537 21.5469 52.9928 20.6133 52.4955 19.8017C52.4088 19.6745 52.278 19.5837 52.1283 19.5468C51.9786 19.5098 51.8204 19.5293 51.6842 19.6014C51.3472 19.7604 51.0264 19.9513 50.7261 20.1715C50.6393 20.2429 50.577 20.3396 50.5479 20.448C50.5189 20.5564 50.5244 20.6711 50.5638 20.7762C51.0157 22.3293 50.923 23.9895 50.3011 25.483C49.7332 26.8157 48.6321 28.0213 47.3341 28.4295C46.4802 28.6992 45.5917 28.5682 45.0431 27.8133C44.2704 26.7695 44.5949 24.9591 45.7192 23.4531C46.7246 22.2075 48.0645 21.2725 49.5825 20.7569C49.6161 20.7505 49.6478 20.7364 49.6749 20.7157C49.7021 20.695 49.7241 20.6682 49.7391 20.6376C49.7541 20.6069 49.7617 20.5732 49.7613 20.5391C49.761 20.505 49.7527 20.4714 49.7371 20.4411C49.6598 20.2061 49.5362 19.8864 49.486 19.7401C49.3546 19.3934 48.9876 19.3549 48.5356 19.3857C47.4952 19.5341 46.4939 19.8834 45.5878 20.4141C43.1616 21.7122 41.9408 24.2196 41.4076 25.5639C41.2246 26.0683 40.9639 26.5413 40.635 26.9659C40.1058 27.5777 39.5241 28.1421 38.8964 28.6529C38.8478 28.6964 38.8144 28.7543 38.8012 28.8181C38.788 28.8818 38.7956 28.9482 38.823 29.0073C39.0029 29.3345 39.2307 29.6331 39.4991 29.8932C39.5645 29.9161 39.6349 29.921 39.7029 29.9075C39.7709 29.8939 39.8339 29.8624 39.8855 29.8162C40.5192 29.377 41.0943 28.8593 41.5969 28.2755C41.7206 28.1214 41.8519 28.1869 41.9176 28.418C42.0797 29.0143 42.3865 29.5616 42.8109 30.0117C43.2354 30.4618 43.7645 30.8007 44.3515 30.9986C46.5768 31.7459 48.8871 30.6635 50.6295 28.7762C51.326 27.9874 51.9712 27.155 52.5612 26.2841C53.2837 25.3944 54.7015 23.4069 56.3937 22.1281C57.0118 21.6582 57.7458 21.3 58.1167 21.5388C58.4103 21.7276 58.5031 22.1744 58.0317 23.0333C56.3087 26.1724 53.782 29.8585 53.3068 30.7367C53.2218 30.8908 53.3068 31.014 53.4575 31.014C54.3615 31.014 55.254 31.014 56.073 31.014C56.128 31.0115 56.1813 30.995 56.228 30.966C56.2747 30.937 56.3131 30.8965 56.3396 30.8484C57.6609 28.7839 58.9087 26.8195 60.2416 24.7897C60.315 24.6703 60.3845 24.7627 60.3884 24.8128C60.4031 25.353 60.5489 25.8817 60.8134 26.3535C61.0212 26.6998 61.3163 26.9859 61.6694 27.1832C62.0226 27.3806 62.4214 27.4822 62.8262 27.4782C63.3872 27.4858 63.9428 27.3687 64.4527 27.1354C64.9299 26.958 65.3809 26.717 65.7933 26.4189C65.9942 26.2803 66.0289 26.5114 66.0212 26.5461C65.716 28.1869 66.0946 30.1281 67.7288 30.9331C69.6837 31.8961 71.8317 30.548 73.068 29.3231C73.1878 29.2076 73.3191 29.2191 73.3307 29.4733C73.3667 30.0001 73.5868 30.4975 73.9527 30.8792C74.992 31.9153 77.082 31.5032 79.1798 29.8855C80.6659 28.6852 82.0158 27.3265 83.2055 25.8335C83.2225 25.817 83.2361 25.7972 83.2454 25.7754C83.2546 25.7535 83.2594 25.7301 83.2594 25.7064C83.2594 25.6827 83.2546 25.6592 83.2454 25.6374C83.2361 25.6155 83.2225 25.5958 83.2055 25.5793C83.0123 25.379 82.7303 25.144 82.541 24.9669C82.4987 24.935 82.4472 24.9177 82.3942 24.9177C82.3412 24.9177 82.2896 24.935 82.2474 24.9669C80.9454 26.2032 79.7709 27.613 78.0711 28.78C77.4993 29.1652 76.5875 29.5003 76.178 28.9495C76.0994 28.8123 76.0581 28.6569 76.0581 28.4989C76.0581 28.3408 76.0994 28.1855 76.178 28.0482C76.6725 26.8157 84.5074 14.9216 84.917 14.2206" fill="white"/>
<path d="M53.5 36.7452C26.1782 36.7452 4.04882 29.219 4.04882 20.0057C4.04882 10.7924 26.1898 3.27001 53.5 3.27001C80.8102 3.27001 102.951 10.7963 102.951 20.0057C102.951 29.2151 80.8063 36.7452 53.5 36.7452V36.7452ZM53.5 1.75244C25.1853 1.75244 2.23303 9.92192 2.23303 20.0057C2.23303 30.0895 25.1853 38.2628 53.5 38.2628C81.8147 38.2628 104.763 30.0895 104.763 20.0057C104.763 9.92192 81.8108 1.75244 53.5 1.75244" fill="white"/>
<path d="M48.6553 14.1628C48.7555 14.0548 48.891 13.9858 49.0374 13.9682C49.1839 13.9505 49.332 13.9854 49.4551 14.0665C49.6907 14.2668 49.5787 14.7637 49.343 15.1065C49.0843 15.487 48.6958 15.7607 48.2497 15.8768C48.1686 15.8768 48.099 15.8768 48.0642 15.6842C48.0304 15.3989 48.0665 15.1097 48.1694 14.8413C48.2724 14.573 48.4391 14.3335 48.6553 14.1435V14.1628ZM68.289 8.19651C63.8577 9.21336 59.6273 9.2018 55.2153 8.67027C49.4512 7.99237 43.9652 6.45168 38.1624 6.93315C33.3487 7.31832 28.7667 10.0376 28.759 14.1397C28.759 16.2235 30.2348 17.9067 32.5335 17.8335C35.2378 17.741 37.4554 15.5841 38.6144 12.8648C39.0587 11.8325 38.2281 11.405 37.8418 11.9981C37.1676 13.0346 36.2253 13.8703 35.1142 14.417C33.8432 15.0371 32.4833 14.8677 32.0737 13.8393C31.4942 12.3872 32.6957 10.2148 35.4465 9.1941C39.4141 7.7266 43.5595 8.69723 47.562 9.44446C47.6161 9.44446 47.8286 9.56387 47.6431 9.66016C46.7348 10.0975 45.8879 10.6517 45.1242 11.3087C44.184 12.0835 43.3139 12.9394 42.5242 13.8662C41.7515 14.8253 41.172 15.6842 40.4302 16.6318C40.4053 16.67 40.3716 16.7017 40.332 16.7245C40.2924 16.7473 40.2479 16.7604 40.2023 16.7627C38.3942 17.067 36.6248 17.2711 35.0022 18.3958C34.841 18.4874 34.7221 18.6381 34.6708 18.8159C34.6196 18.9936 34.64 19.1843 34.7279 19.3472C34.7794 19.4124 34.8434 19.4667 34.9162 19.5069C34.989 19.5471 35.0691 19.5724 35.1519 19.5814C35.2346 19.5904 35.3183 19.5828 35.3981 19.5591C35.4779 19.5354 35.5521 19.4961 35.6165 19.4435C36.5399 18.7213 37.6728 18.3159 38.8462 18.288C38.9003 18.288 38.9235 18.288 38.939 18.3304C38.9437 18.3449 38.9444 18.3605 38.941 18.3754C38.9376 18.3903 38.9302 18.404 38.9196 18.4151C37.826 20.0008 36.6364 21.5186 35.3576 22.9601C34.6946 23.7122 33.989 24.4259 33.2443 25.0978C30.2039 27.9134 26.9316 27.8633 25.761 26.0993C25.4576 25.6477 25.2833 25.1223 25.2567 24.5794C25.2302 24.0366 25.3524 23.4967 25.6103 23.0179C26.1744 21.8893 27.3218 21.0612 28.2722 20.5759C28.6237 20.3949 28.7242 19.9481 28.3726 19.5359C28.1486 19.2702 27.6 19.224 27.2136 19.2971C25.7888 19.639 24.5231 20.454 23.6245 21.6082C22.6163 22.8934 22.1481 24.5188 22.3187 26.1416C22.6162 29.2577 25.1892 31.0603 28.1138 31.0371C30.4318 31.0371 32.6301 30.3169 35.2649 27.6515C37.722 25.1633 39.9589 21.4464 42.0567 18.0222C42.1224 17.9105 42.1687 17.8527 42.4855 17.8142C43.7991 17.6486 45.7424 17.4637 46.9864 17.3905C47.2607 17.3905 47.3186 17.3905 47.4268 17.5176C47.7626 17.9115 48.1703 18.2382 48.6283 18.4806C48.7547 18.5701 48.9027 18.6246 49.0571 18.6385C49.1377 18.6378 49.2172 18.6194 49.2899 18.5848C49.3627 18.5502 49.427 18.5002 49.4782 18.4382C49.5418 18.3833 49.5856 18.3091 49.603 18.2271C49.6204 18.1451 49.6105 18.0596 49.5748 17.9837C49.5014 17.8566 48.636 17.3751 48.609 17.1825C48.6045 17.1479 48.6137 17.1129 48.6346 17.0849C48.6555 17.0569 48.6865 17.038 48.721 17.0323C49.0832 16.9281 49.4207 16.7523 49.7133 16.5154C50.006 16.2785 50.248 15.9854 50.4248 15.6534C50.8111 14.8831 50.8845 13.8893 50.1621 13.3424C49.5285 12.8494 48.5703 12.9264 47.8054 13.6082C47.4672 13.9195 47.2092 14.3075 47.0532 14.7392C46.8972 15.171 46.8478 15.6338 46.9091 16.0887C46.9091 16.235 46.9091 16.2851 46.7198 16.3005C45.5608 16.3929 44.4636 16.4238 43.2428 16.4892C43.1616 16.4892 43.1346 16.4392 43.1809 16.3814C44.5679 13.8662 46.6889 12.1137 49.0301 10.3997C49.1846 10.2841 49.1383 10.0607 49.1305 9.87971C53.3802 10.7926 57.4484 12.4989 61.8372 12.4642C63.6493 12.5106 65.4436 12.0985 67.0527 11.2663C68.5131 10.469 69.1042 9.72564 69.1467 8.97455C69.1704 8.86057 69.1638 8.74236 69.1275 8.63172C69.0912 8.52107 69.0264 8.42184 68.9396 8.34392C68.8529 8.26599 68.7472 8.21209 68.633 8.18758C68.5188 8.16307 68.4002 8.1688 68.289 8.20421" fill="white"/>
</svg>
